<?xml version="1.0" encoding="UTF-8"?><svg id="a" xmlns="http://www.w3.org/2000/svg" viewBox="0 0 800 800"><path d="M497.77,380.13c-.03-62.71-.21-125.43-.16-188.14,0-14.9,13.21-26.56,27.12-24.42,11.25,1.73,21.74,13.31,21.81,24.99.28,44.3.25,88.6.45,132.9.19,42.66.4,85.32.87,127.97.12,11.12-3.49,20.08-12.25,26.99-8.68,6.86-18.88,7.73-26.8.06-9.02-8.74-16.27-19.26-24.84-28.5-28.51-30.75-57.44-61.1-85.86-91.92-30.22-32.33-57.89-68.19-92.13-96.31.11,64.48.15,129.43.51,193.96.06,10.79-3.09,19.13-12.66,24.69-7.77,4.51-15.01,3.86-22.27-1.25-10.55-7.42-14.56-17.6-14.52-30.24-.11-83.91-.85-167.82-1.3-251.73-.1-14.66,6.23-25.33,19.27-30.37,12.47-4.82,22.43.43,30.79,9.33,62.8,67.92,127.37,134.4,189.27,203.06.9-.35,1.8-.7,2.7-1.05Z" stroke-width="0"/><path d="M59.41,265.9c0-7.65-.25-14.38.05-21.08.93-21.25-.15-42.89,3.53-63.67,11.69-65.97,65.37-111.17,120.24-121.22,18.28-3.35,37.33-3.27,56.03-3.32,117.93-.34,235.86-.7,353.78-.2,77.67.33,140.66,57.26,149.08,134.33,2.26,20.64,1.13,41.65,1.66,62.48.14,5.55.69,11.08.93,14.77-7.85-4.72-16.8-9.92-25.48-15.52-1.48-.96-2.52-3.66-2.58-5.59-.48-14.52-.22-29.08-1.03-43.58-3.89-69.98-54.93-118.52-123.71-118.74-73.38-.24-146.76-.02-220.15-.06-42.67-.03-85.33-.34-128-.19-14.75.05-28.85,14.24-29.2,29.16-.36,15.23,0,30.47.14,45.71.28,29.21-16.82,55.67-43.98,66.45-19.58,7.15-41.24,5.56-61.79,6.66-9.76.32-17.13,4.15-21.25,13.37-.66,1.47-1.43,3.23-2.67,4.04-8.7,5.68-17.53,11.14-25.61,16.22ZM85.37,203.18c5.33-1.12,10.05-2.86,14.82-2.99,15.67-.43,31.37-.04,47.05-.46,5.78-.16,11.67-1.15,17.23-2.72,9.15-2.58,19.18-14.15,18.93-22.37-.85-28.69-2.18-57.36-3.35-86.45-58.83,19.41-91.26,73.01-94.68,115Z" stroke-width="0"/><path d="M742.89,540.16c-.49,25.97,1.1,52.26-2.43,77.84-8.55,62.12-46.58,99.71-105.31,117.71-18.23,5.59-37.01,7.85-56.17,7.72-41.49-.27-82.99-.08-124.49-.03-76.9.11-153.78.2-230.67.45-30.79.1-60.23-5.66-87.19-20.76-87.56-49.19-76.01-122.2-77.08-208.91-.11-5.08-.79-10.13-1.46-14.98l27.69,15.98c.83,2.9.86,6.3.86,9.96-.03,25.55-.34,51.17,1.39,76.63,3.45,50.69,34.93,97.03,90.47,108.94,12.49,2.69,25.56,3.7,38.38,3.73,122.86.25,245.7.2,368.55.07,23.62-.03,46.82-3.05,68.02-14.45,35.59-19.13,57.14-48.66,60.15-89.11,2.37-32.47,1.29-65.22,1.79-97.83l27.57-15.92c0,13.21.23,28.08-.06,42.96Z" stroke-width="0"/><path d="M730.32,350.46c14.75,0,29.25.33,43.73-.14,6.93-.23,11.34,2.3,15.17,7.85,16.71,23.63,12.45,38.12-2.81,60.99-2.23,4.46-5.56,6.27-10.68,6.17-14.24-.28-28.49-.1-43.68-.1,0,7.98.61,14.3-.18,20.44-.73,5.65-1.86,11.77-4.75,16.51-6.68,10.93-19.79,12.46-28.97,3.55-22.69-22.03-45.16-44.29-67.46-66.72-7.92-7.96-8.27-18.63-1.04-27.28,4.93-5.9,10.75-11.07,16.25-16.48,17.35-17.1,34.7-34.2,52.17-51.18,11.12-12.03,30.05-7.91,31.2,9.69.99,12.03,1.25,24.82,1.05,36.7Z" stroke-width="0"/><path d="M68.3,351.66c0-11.86-.04-23.04,0-34.23.05-11.75,4.27-16.99,15.61-19.92,7.19-1.86,13.13.8,17.94,5.52,22.07,21.64,43.12,44.32,64.9,66.24,10.49,10.31,11.31,17.37,1.22,28.11-20.17,21.78-42.23,41.88-61.5,64.47-10.66,13.03-23.86,13.82-33.31,1.1-2.2-2.97-3.43-7.2-3.69-10.95-.46-6.75-.03-13.59.37-20.37.27-4.6-.92-6.99-6.1-6.79-12.17.46-24.37.19-36.51,1.01-6.3.42-10.58-1.2-14.47-6.23-16.24-20.99-16.99-39.1-2.19-60.6,3.46-5.03,7.67-7.6,14.06-7.45,14.26.34,28.54.11,43.67.11Z" stroke-width="0"/><path d="M180.16,625.16h-15.2c-.78,6.25-1.28,12.5-2.4,18.63-.94,5.14-2.55,10.47-9.26,10.33-5.62-.12-9.39-5.59-9.1-12.65.51-5.84,1.6-10.4,2.42-16.57-2.51,0-4.97-.1-7.43.02-6.21.31-9.03-3.07-9.49-8.79-.47-5.89,1.67-10.1,8.06-11.03,3.59-.52,9.29.29,10.36-1.59,2.37-4.15,2.41-9.63,3.56-15.36-3.96,0-6.95.03-9.93,0-6.89-.07-11.53-4.51-11.65-11.09-.52-11.16,13.54-8.92,22.09-9.81,1.08-7.74,1.35-15.32,3.49-22.32.94-3.08,5.47-6.45,8.81-6.98,2.65-.42,7.26,2.62,8.61,5.33,1.46,2.92.42,7.25-.02,10.91-.52,4.35-1.57,8.64-2.52,13.63h18.61c0-3.86-.17-7.95.05-12.02.2-3.71-.29-8.15,1.56-10.89,2.17-3.2,6.51-6.76,9.97-6.82,4.71-.08,8.47,4.05,8.07,9.64-.48,6.68-1.47,13.32-2.3,20.49,7.2-1.01,15.37-3.35,19.66,4.95,1.36,2.63.73,7.86-1.11,10.28-5.47,7.2-13.52,4.11-21.88,3.8-.6,5.49-1.24,11.33-1.91,17.4,5.71.61,10.57.84,15.32,1.7,4.99.9,8.28,4.22,7.32,9.35-.94,5.01-2.82,10.39-9.57,10.22-4.84-.13-9.67-.84-15.17-1.36-.51,6.45-.94,12.47-1.47,18.47-.68,7.58-4.17,11.6-9.76,11.38-4.94-.19-9.57-5.49-9.86-11.83-.13-2.75.56-5.55.9-8.32.34-2.73.7-5.46,1.17-9.08ZM167.98,586.38c-.58,6.83-1.06,12.5-1.53,18.03,17.77,4.22,19.5,2.69,18.98-16.31-5.37-.53-10.83-1.07-17.45-1.72Z" stroke-width="0"/><path d="M640.81,596.44c3.11-14.1,6.41-29.12,9.76-44.13,1.57-7.02,12.45-11.29,18.04-6.78,1.32,1.07,1.72,4.2,1.42,6.22-3.8,25.66-7.79,51.28-11.77,76.91-1.2,7.73-7.31,10.85-14.14,5.65-4.57-3.48-7.77-9.63-9.93-15.23-3.53-9.11-5.68-18.75-8.49-28.15-.38-1.26-1.16-2.4-2.83-5.72-1.86,6.61-3.57,11.23-4.44,16.01-3.06,16.79-5.94,33.61-8.64,50.46-1,6.27-4.04,8.73-10.46,8.31-8.63-.57-13.13-2.97-13.2-9.37-.06-5.76.78-11.64,2.01-17.29,5.21-23.95,10.79-47.82,16.06-71.76,2.84-14.09,21.23-7.38,25.91,2.86,4.33,10.47,7.3,21.51,10.7,32.02Z" stroke-width="0"/><path d="M637.92,166.42c-15.15,0-29.41.24-43.66-.09-8.83-.2-13.8-5.72-13.81-14.15,0-7.13,5.41-12.75,13.74-12.99,17.07-.49,34.17-.83,51.23-.41,5.05.13,10.73,2.05,14.81,4.97,3.05,2.18,5.46,7.24,5.63,11.12.88,20.57,1,41.17,1.31,61.77.16,10.29-5.53,16.87-14.52,17-9.33.13-14.66-5.75-14.71-16.47-.07-16.34-.02-32.68-.02-50.76Z" stroke-width="0"/><path d="M431.87,648.64c-4.16-6.67-7.96-13.01-12.01-19.18-3.11-4.73-5.89-9.92-9.93-13.75-11.88-11.26-24.41-21.81-36.44-32.92-3.22-2.97-5.89-6.71-8.2-10.47-4.36-7.07-3.43-12.72,2.27-17.51,6.69-5.62,10.8-5.75,17.85.54,17.46,15.57,34.83,31.23,52,47.12,17.05,15.78,15.47,31.57-5.53,46.17Z" stroke-width="0"/><path d="M516.1,636.02c-11.93,0-23.86.03-35.79-.01-7.17-.03-12.33-4.15-12.85-10.13-.67-7.74,3.28-13.94,10.12-15.36,3.4-.71,6.93-1.15,10.4-1.16,19.64-.06,39.29-.15,58.93.2,7.14.13,14.83.4,17.97,9,3.31,9.07-3.35,18.26-13.01,18.2-11.92-.08-23.85-.02-35.77-.02,0-.24,0-.48,0-.73Z" stroke-width="0"/><path d="M516.58,548.64c11.47,0,22.94-.08,34.4.03,9.19.09,14.14,4.76,13.99,12.88-.15,8.1-6,13.64-14.68,13.57-22.21-.39-44.43-1.06-66.64-.03-18.37.1-22.66-25.63-1.48-26.37,11.47-.04,22.94,0,34.4,0v-.07Z" stroke-width="0"/><path d="M85.37,203.18c3.43-41.98,35.85-95.58,94.68-115,1.16,29.09,2.49,57.76,3.35,86.45.24,8.22-9.78,19.8-18.93,22.37-5.57,1.57-11.46,2.56-17.23,2.72-15.67.42-31.37.04-47.05.46-4.77.13-9.49,1.87-14.82,2.99Z" fill="#fff" stroke-width="0"/><path d="M167.98,586.38c6.63.65,12.08,1.19,17.45,1.72.52,19-1.21,20.52-18.98,16.31.47-5.53.95-11.2,1.53-18.03Z" fill="#fff" stroke-width="0"/><path d="M323.79,608.66c-2.24,3.63-3.6,6.29-5.38,8.64-5.14,6.75-8.55,7.65-15.31,2.78-4.19-3.02-6.56-3.46-10.45.62-1.81,1.89-7.02,2.33-9.8,1.2-15.38-6.22-19.57-28.68-7.96-40.63,9.37-9.65,13.29-10.13,27.86-3.15.97-7.36,6.2-6.15,11.07-5.33,5.8.97,4.58,5.73,4.5,9.46-.1,4.42.03,9.14-1.47,13.16-2.57,6.88-2.71,11.91,6.94,13.26ZM284.77,598.42c-.23,4.47-.43,7.92,4.91,7.93,6.05.02,8.81-3.49,9.25-11.25.34-6.05-4.08-6.4-7.75-6.49-7.61-.18-5.68,6.22-6.42,9.81Z" stroke-width="0"/><path d="M284.77,598.42c.74-3.59-1.19-9.99,6.42-9.81,3.66.09,8.09.44,7.75,6.49-.44,7.76-3.2,11.27-9.25,11.25-5.34-.01-5.15-3.46-4.91-7.93Z" fill="#fff" stroke-width="0"/><path d="M349.21,574.54c-22.99-51.55-99.71-45.27-108.82,17.3-4.2,27.97,12.7,55.8,44.74,59.49,17.47,2.38,37.42-3.4,37.91-9.63.27-3.48-5.54-7.16-9.92-8.59-9.83-3.21-14.71,4.12-26.88,1.94-6.53-1.17-11.22-4.38-13.38-5.88-15.73-10.93-17.02-26.66-13.31-43.26,3.31-14.77,13.72-23.97,28.09-27.21,33.94-7.42,54.17,28.55,39.12,58.96,0,0-.31,1.41-.34,2.8-.06,3.45,2.61,9.85,5.79,10.58,6.46,1.47,21.58-18.93,20.63-40.62-.34-7.83-2.73-13.68-3.64-15.87Z" stroke-width="0"/></svg>