<?xml version="1.0" encoding="UTF-8"?><svg id="a" xmlns="http://www.w3.org/2000/svg" viewBox="0 0 800 800"><path d="M410.02,0c95.33-.59,192.1,36.4,261.61,103.17,15.88,12.09,21.37,32,7.65,48.05-5.88,6.81-11.94,13.49-18.19,19.96-21.81,22.61-55.51,25.04-80.28,5.73-38.51-31.15-84.61-52.19-133.67-59.6-155.78-26.38-308.6,83.98-329.01,241.46-25.73,170.56,109.77,328.11,282.7,326.27,52.92-.5,102.58-13.26,148.2-40.63,23.45-14.07,51.51-11.18,71.82,7.16,7.96,7.19,16.09,14.2,23.88,21.57,14.43,13.18,12.35,36.59-3.59,47.39-48.79,37.17-103.15,61.84-163.59,72.97-25.89,4.77-51.99,7.05-78.27,6.39C202.88,797.05,19.18,642.57,2.04,443.36c-10.41-107.26,18.98-219.87,91.32-301.35C172.92,50.63,289.15-.05,410.02,0Z" fill="#3055cc" stroke-width="0"/><path d="M747.8,381.56c32.83-.17,56.28,28.33,51.6,61.31-2.9,25.35-7.93,50.2-15.41,74.57-9.2,29.94-22.13,58.2-37.64,85.4-10.25,17.98-35.17,23.64-51.89,7.14-6.81-6.72-13.98-13.07-20.98-19.6-20.19-18.84-25.15-44.73-13.44-69.65,12.12-25.79,20.3-52.78,24.09-81.04,3.13-33.3,29.08-58.7,63.67-58.13Z" fill="#3055cc" stroke-width="0"/><path d="M726.61,229.88c27-1.05,57.18,21.54,56.94,57.43-3.9,77.7-113.04,73.38-114.57-.71-.08-31.92,26.93-57.73,57.63-56.72Z" fill="#3055cc" stroke-width="0"/><path d="M426.63,491.5c-.68,5.01-2.51,9.27-5.46,12.8-2.96,3.53-6.37,5.97-10.24,7.34-3.87,1.37-7.85,1.42-11.95.17-4.1-1.25-7.51-4.27-10.24-9.05-2.28-3.87-3.59-7.9-3.93-12.12-.34-4.21-.74-8.59-1.19-13.14-.46-5-.97-9.39-1.54-13.14-.57-3.76-1.2-8.14-1.88-13.14-2.05-13.66-4.33-27.14-6.83-40.46-2.51-13.31-5.35-26.68-8.54-40.11-4.56,11.38-8.88,22.65-12.97,33.8-4.1,11.15-8.2,22.42-12.29,33.8-3.19,8.42-6.32,16.9-9.39,25.43-3.07,8.53-6.66,16.79-10.76,24.75-1.37,2.73-3.64,4.95-6.83,6.66s-6.6,2.68-10.24,2.9c-3.65.23-7.06-.28-10.24-1.54-3.19-1.25-5.58-3.36-7.17-6.32-9.79-18.89-19.46-37.66-29.02-56.33-9.56-18.66-19.12-37.44-28.68-56.33-1.14,11.61-2.17,23.27-3.07,34.99-.91,11.72-1.94,23.39-3.07,34.99-.23,3.64-.46,8.08-.68,13.31-.23,5.24-.63,10.53-1.19,15.88-.57,5.35-1.25,10.47-2.05,15.36-.8,4.9-2.11,8.71-3.92,11.44-2.73,4.55-6.32,7.51-10.75,8.88-4.44,1.37-8.76,1.48-12.97.34-4.21-1.14-7.74-3.47-10.58-7-2.85-3.53-4.16-8.02-3.93-13.48.45-9.33,1.25-18.55,2.39-27.65,1.14-9.1,2.16-18.32,3.07-27.65,1.82-20.25,3.7-40.4,5.63-60.43,1.93-20.02,3.81-40.28,5.63-60.77.46-5.91,1.65-11.38,3.58-16.39,1.93-5,6.09-8.53,12.46-10.58,2.5-.91,5.12-1.25,7.85-1.02,2.73.23,5.23,1.02,7.51,2.39,5,3.19,8.93,7.57,11.78,13.14,2.84,5.58,5.51,10.87,8.02,15.88,4.32,8.19,8.53,16.44,12.63,24.75,4.1,8.31,8.19,16.56,12.29,24.75,5,10.47,10.07,20.77,15.19,30.9,5.12,10.13,10.41,20.31,15.88,30.55,1.36-3.41,2.67-6.83,3.92-10.24,1.25-3.41,2.56-6.83,3.92-10.24,2.5-5.92,4.83-11.89,7-17.92,2.16-6.03,4.38-12,6.66-17.92,3.18-7.74,6.2-15.36,9.05-22.87,2.84-7.51,5.63-15.13,8.36-22.87,2.27-5.69,4.44-11.83,6.49-18.43,2.05-6.6,5.35-12.17,9.9-16.73,3.18-3.41,6.66-5.46,10.41-6.14,3.75-.68,7.28-.39,10.58.85,3.3,1.25,6.26,3.36,8.88,6.31,2.61,2.96,4.49,6.38,5.63,10.24,1.37,5.24,2.95,11.15,4.78,17.75,1.82,6.6,3.41,12.52,4.78,17.75,2.5,9.56,4.78,18.95,6.83,28.17,2.05,9.22,3.98,18.61,5.8,28.16,3.19,15.7,5.97,31.24,8.37,46.6,2.39,15.36,4.49,30.9,6.32,46.6v2.39Z" fill="#3055cc" stroke="#3055cc" stroke-miterlimit="10" stroke-width="20"/><path d="M476.81,513.35c-5.92-1.14-10.98-3.87-15.19-8.19-4.21-4.33-6.31-9.67-6.31-16.05v-143.72c-4.1.68-8.08.17-11.95-1.54-3.87-1.71-6.94-3.98-9.22-6.83-2.28-2.84-3.58-6.14-3.92-9.9s.85-7.34,3.58-10.75c2.95-3.87,6.49-7.11,10.58-9.73,4.1-2.61,8.42-4.78,12.97-6.49,4.55-1.71,9.27-3.13,14.17-4.27,4.89-1.14,9.61-2.16,14.17-3.07,12.74-2.05,25.48-2.56,38.23-1.54,12.74,1.02,24.8,3.81,36.19,8.36,11.37,4.55,21.79,10.92,31.24,19.12,9.44,8.19,17.12,18.43,23.04,30.72,3.64,7.51,6.26,15.31,7.85,23.39,1.59,8.08,2.5,16.22,2.73,24.41.22,10.7-1.03,21.05-3.76,31.07-2.73,10.02-6.83,19.41-12.29,28.17-5.46,8.76-12.07,16.56-19.8,23.39-7.74,6.83-16.38,12.52-25.94,17.07-8.42,3.87-17.36,6.71-26.8,8.53-9.45,1.82-18.72,3.41-27.82,4.78-4.56.68-9.39,1.42-14.51,2.22-5.12.8-10.07,1.2-14.85,1.2l-2.39-.34ZM513.68,332.07c-2.96,0-5.75.12-8.37.34-2.62.23-5.41.57-8.37,1.02v136.9c1.37,0,2.5-.11,3.41-.34.91-.22,1.82-.34,2.73-.34s1.71-.11,2.39-.34c3.19-.45,5.8-.79,7.85-1.02,2.05-.23,3.98-.51,5.8-.85,1.82-.34,3.7-.74,5.63-1.2,1.93-.45,4.15-1.02,6.66-1.71,13.2-3.41,23.61-8.82,31.24-16.22,7.62-7.39,13.37-17.58,17.24-30.55,2.5-7.51,3.64-15.13,3.41-22.87-.23-7.74-1.65-15.13-4.27-22.19-2.62-7.05-6.43-13.48-11.44-19.29-5.01-5.8-11.15-10.41-18.43-13.83-5.92-2.73-11.78-4.55-17.58-5.46-5.8-.91-11.78-1.59-17.92-2.05Z" fill="#3055cc" stroke="#3055cc" stroke-miterlimit="10" stroke-width="20"/></svg>